<svg width="83" height="83" viewBox="0 0 83 83" fill="none" xmlns="http://www.w3.org/2000/svg">
<circle cx="41.5" cy="41.5" r="41" stroke="#BFB38C"/>
<circle cx="42" cy="42" r="33.5" stroke="#939399"/>
<path fill-rule="evenodd" clip-rule="evenodd" d="M40.6662 32.1528C41.1707 32.3618 41.4996 32.854 41.4996 33.4001V49.6001C41.4996 50.1461 41.1707 50.6383 40.6662 50.8473C40.1618 51.0562 39.5811 50.9407 39.195 50.5546L34.1904 45.5501H30.6996C29.954 45.5501 29.3496 44.9456 29.3496 44.2001V38.8001C29.3496 38.0545 29.954 37.4501 30.6996 37.4501H34.1904L39.195 32.4455C39.5811 32.0594 40.1618 31.9439 40.6662 32.1528Z" fill="#1E1919"/>
<path fill-rule="evenodd" clip-rule="evenodd" d="M47.7863 31.954C48.3136 31.4268 49.1683 31.4268 49.6955 31.954C52.1371 34.3955 53.6496 37.7724 53.6496 41.4999C53.6496 45.2275 52.1371 48.6043 49.6955 51.0459C49.1683 51.5731 48.3136 51.5731 47.7863 51.0459C47.2591 50.5187 47.2591 49.6639 47.7863 49.1367C49.7422 47.1808 50.9496 44.4827 50.9496 41.4999C50.9496 38.5172 49.7422 35.8191 47.7863 33.8632C47.2591 33.336 47.2591 32.4812 47.7863 31.954ZM43.968 35.7724C44.4952 35.2452 45.35 35.2452 45.8772 35.7724C46.5871 36.4823 47.1664 37.3243 47.575 38.2594C48.0093 39.2535 48.2496 40.3504 48.2496 41.4999C48.2496 43.7363 47.3415 45.7632 45.8772 47.2275C45.35 47.7547 44.4952 47.7547 43.968 47.2275C43.4408 46.7003 43.4408 45.8455 43.968 45.3183C44.9467 44.3396 45.5496 42.9915 45.5496 41.4999C45.5496 40.7295 45.389 40 45.1009 39.3404C44.8291 38.7184 44.4428 38.1564 43.968 37.6816C43.4408 37.1544 43.4408 36.2996 43.968 35.7724Z" fill="#1E1919"/>
</svg>
