<svg width="83" height="83" viewBox="0 0 83 83" fill="none" xmlns="http://www.w3.org/2000/svg">
<circle cx="41.5" cy="41.5" r="41" stroke="#BFB38C"/>
<circle cx="42" cy="42" r="33.5" stroke="#939399"/>
<path fill-rule="evenodd" clip-rule="evenodd" d="M40.8344 32.1033C41.3619 32.3134 41.7059 32.8083 41.7059 33.3572V49.6428C41.7059 50.1917 41.3619 50.6866 40.8344 50.8967C40.3068 51.1067 39.6996 50.9906 39.2958 50.6025L34.0623 45.5714H30.4118C29.6321 45.5714 29 44.9638 29 44.2143V38.7857C29 38.0362 29.6321 37.4286 30.4118 37.4286H34.0623L39.2958 32.3975C39.6996 32.0094 40.3068 31.8933 40.8344 32.1033Z" fill="#1E1919"/>
<path fill-rule="evenodd" clip-rule="evenodd" d="M44.9429 37.826C45.4942 37.296 46.3881 37.296 46.9394 37.826L48.7647 39.5807L50.59 37.826C51.1413 37.296 52.0352 37.296 52.5865 37.826C53.1378 38.356 53.1378 39.2153 52.5865 39.7453L50.7612 41.5L52.5865 43.2546C53.1378 43.7846 53.1378 44.6439 52.5865 45.1739C52.0352 45.7039 51.1413 45.7039 50.59 45.1739L48.7647 43.4192L46.9394 45.1739C46.3881 45.7039 45.4942 45.7039 44.9429 45.1739C44.3916 44.6439 44.3916 43.7846 44.9429 43.2546L46.7682 41.5L44.9429 39.7453C44.3916 39.2153 44.3916 38.356 44.9429 37.826Z" fill="#1E1919"/>
</svg>
