<?xml version="1.0" encoding="UTF-8"?>
<svg id="Layer_2" data-name="Layer 2" xmlns="http://www.w3.org/2000/svg" viewBox="0 0 512.01 481.16" fill="#1E1919">
  <g id="Layer_2-2" data-name="Layer 2">
    <g>
      <polygon points="201.17 167.74 195.27 11 159.2 11 153.16 150.59 134.73 178.72 136.91 185.26 162.74 168.33 193.13 181.63 201.17 167.74"/>
      <polygon points="167.22 270 124.4 270 128.22 212 145.81 198.71 145.81 185.41 162.22 178 195.22 188 195.22 231.98 167.22 270"/>
      <polygon points="478.73 0 388.62 0 401.14 50.31 426.56 158.1 396.63 183.49 394.27 210.59 407.45 246.39 449.05 254.71 512.01 178.17 478.73 0"/>
      <circle cx="264.22" cy="51" r="7"/>
      <circle cx="257.22" cy="134" r="7"/>
      <polygon points="297.22 40 384.78 48.06 374.58 99.5 297.22 88.29 297.22 40"/>
      <polygon points="239.07 433.78 248.04 431.01 239.84 428.29 248.4 425.53 240.56 422.8 248.74 420.06 241.22 417.3 249.06 414.58 241.85 411.81 249.37 409.1 242.43 406.31 249.65 403.62 242.98 400.81 249.92 398.14 243.5 395.31 250.17 392.66 243.99 389.81 250.41 387.18 244.46 384.31 250.64 381.7 244.9 378.81 250.85 376.22 245.32 373.3 251.06 370.74 245.72 367.8 251.26 365.26 246.1 362.29 251.45 359.78 246.46 356.79 251.63 354.29 246.81 351.28 251.8 348.81 247.15 345.77 251.97 343.33 247.47 340.26 252.13 337.85 247.78 334.75 252.28 332.36 152.23 257.99 71.63 348.78 2.08 365.53 13.23 368.27 2.11 371.1 13.24 373.68 2.13 376.66 13.23 379.08 2.13 382.21 13.19 384.48 2.13 387.77 13.12 389.88 2.11 393.32 13.01 395.28 2.08 398.88 12.88 400.67 2.03 404.43 12.71 406.07 1.97 409.99 12.51 411.47 1.89 415.54 12.28 416.87 1.8 421.1 12.02 422.27 1.7 426.66 11.72 427.69 1.58 432.22 11.4 433.1 1.45 437.78 11.04 438.53 1.3 443.35 10.66 443.96 1.15 448.92 10.25 449.4 .98 454.5 9.81 454.86 .8 460.08 9.35 460.32 .61 465.66 8.87 465.8 .42 471.25 7.65 471.29 .21 476.36 6.74 476.31 0 481.16 126.3 478.74 246.75 446.14 238.75 443.87 247.22 441.46 239.07 439.02 247.64 436.48 239.07 433.78"/>
      <polygon points="388.17 211.41 390.17 188.5 295.66 239.5 241.32 239.5 195.22 279 202.9 314 250.22 319 280.22 297 306.22 294 326.59 270 401.5 247.58 388.17 211.41"/>
    </g>
  </g>
</svg>