<?xml version="1.0" encoding="UTF-8"?>
<svg id="Layer_2" data-name="Layer 2" xmlns="http://www.w3.org/2000/svg" viewBox="0 0 543.68 415.15">
  <defs>
    <style>
      .cls-1 {
        fill: #fff;
      }
    </style>
  </defs>
  <g id="Layer_7" data-name="Layer 7">
    <g>
      <path class="cls-1" d="M538,48.95l2.48,7.99c2.69-2.42-1.88-7.24,2.5-8.99,3.31,13.23-6.22,15.47-4.98,1Z"/>
      <polygon points="334.99 68.92 334.99 176.85 328.89 172.37 268.37 190.04 268.03 190.14 231.55 213.64 184.41 264.83 135.31 244.52 88.02 183.6 86.43 168.84 87.72 144.11 108.37 128.94 145.12 0 314.54 0 334.99 68.92"/>
      <polygon points="360.9 415.15 61.74 412.56 74.23 263.94 77.78 264.96 106.28 293.52 117.82 319.32 185.23 355.11 211.44 337.1 268.08 317.21 307.49 292.47 307.49 311.11 350.45 277.11 360.9 415.15"/>
      <polygon points="420.32 133.31 382.66 197.19 373.39 252.58 349.99 271.1 312.49 300.77 312.49 288.82 337.76 256.76 353.31 237.03 361.99 196.94 339.71 180.31 361.77 129.2 357.44 108.44 386.95 108.44 410.73 92.92 420.32 133.31"/>
      <polygon points="205.51 335.11 184.89 349.27 121.68 315.71 110.47 290.64 87.67 267.79 23.2 203.18 22.08 104.27 46.08 94.74 75.49 113.97 83.2 185.55 88.62 192.53 88.63 192.54 132.17 248.63 182.35 269.39 179.52 292.79 179.51 292.79 179.36 294.04 176.3 319.33 205.51 335.11"/>
      <polygon points="356.38 198.75 354.96 205.4 353.12 214 348.67 234.85 329.76 258.83 326.33 263.17 317.12 274.86 317.11 274.88 317.09 274.9 308.29 286.05 308.11 286.16 265.9 312.67 210.52 332.13 181.68 316.55 187.45 268.91 234.8 217.5 270.12 194.74 327.93 177.86 356.38 198.75"/>
      <polygon points="85.03 92.53 95.51 106.37 91.27 118.32 80.21 111.09 77.5 109.32 74.8 107.55 46.64 89.14 22.02 98.92 19.53 99.91 17.04 100.89 17.04 100.9 11.69 103.02 0 91.68 16.3 70 27.63 20.01 105.07 1.31 85.28 91.4 85.03 92.53"/>
      <polygon points="420.49 67.93 420.49 80.59 413.97 84.84 413.97 84.85 411.74 86.3 409.51 87.76 385.47 103.44 341.7 103.44 341.7 93.3 348.29 89.02 350.54 87.56 352.85 86.06 352.5 84.69 351.88 82.24 331.9 3.58 390.08 20 407.58 67.93 420.49 67.93"/>
    </g>
  </g>
</svg>