<?xml version="1.0" encoding="UTF-8"?>
<svg id="Layer_2" data-name="Layer 2" xmlns="http://www.w3.org/2000/svg" viewBox="0 0 479.64 527.8">
  <g id="Layer_6" data-name="Layer 6">
    <g>
      <polygon points="387.96 172.2 343.09 228.94 191.71 228.94 172.02 164.27 205.14 9.94 349.67 0 387.96 172.2"/>
      <polygon points="232.64 280.08 232.64 298.73 221.11 341.23 209.32 360.57 209.31 360.57 173.47 355.66 153.4 306.94 167.91 271.45 131.84 187.43 140.29 173.36 120.78 161.65 120.77 161.65 106.08 127.42 124.31 116.81 156.89 131.76 169.86 174.34 186.48 228.94 195.88 259.79 232.64 280.08"/>
      <polygon points="474.97 143.94 368.57 304.08 313.95 333.74 313.83 333.81 246.8 380.43 244.91 380.48 218.79 366.91 213.11 363.96 213.31 363.64 214.73 361.31 216.41 358.55 221.08 350.9 221.08 350.89 225.75 343.24 265.52 278.04 325.62 259.09 349.47 228.94 389.36 178.5 421.13 138.33 421.6 108.44 446.1 108.44 464.72 96.29 474.97 143.94"/>
      <polygon points="140.29 173.36 131.84 187.43 130.25 190.07 129.99 190.51 126.94 188.68 31.52 131.43 20.28 142.1 25.7 313.62 72.64 355.8 48.4 360.91 5.98 322.79 0 133.78 28.76 106.45 113.45 157.26 117.11 159.45 120.77 161.65 120.78 161.65 140.29 173.36"/>
      <polygon points="168.14 374.67 168.14 512.94 107.97 527.8 58.14 509.94 57.74 369.3 57.74 369.12 61.81 370.04 107.59 380.38 107.98 380.47 168.14 374.67"/>
      <polygon points="175.5 368.94 108.3 375.41 65.63 365.78 57.87 364.03 69.38 361.61 92.8 356.67 92.8 358.33 109.73 366.46 123.14 359.13 123.14 356.99 175.5 368.94"/>
      <polygon points="124 250.1 124 255.74 123.14 256.75 121.14 259.09 119.92 260.52 119.14 260.58 119.14 260.32 112.1 261.08 107.12 261.44 112.04 261.09 105.93 261.75 101.79 261.14 101.78 261.14 96.8 260.41 96.8 260.86 92.8 260.64 91.21 260.55 89.85 253.76 97.18 246.44 116.83 246.44 124 250.1"/>
      <polygon points="174.92 120.98 172.5 133.42 161.02 128.15 157.99 126.76 154.94 125.36 124.04 111.18 104.09 122.78 101.91 124.05 99.74 125.32 91.53 130.09 78.29 120.61 91.23 96.69 92.11 42.89 168.81 15.47 162.51 108.84 174.92 120.98"/>
      <polygon points="479.64 67.93 479.64 80.59 468.08 88.13 465.84 89.6 463.59 91.06 444.62 103.44 400.85 103.44 400.85 93.3 412 86.06 390.89 2.94 449.22 10.22 466.62 67.93 479.64 67.93"/>
      <polygon points="119.14 265.59 119.14 356.75 109.61 361.96 96.82 355.83 96.8 355.82 96.8 265.87 107.16 266.44 119.14 265.59"/>
    </g>
  </g>
</svg>