<svg width="77" height="76" viewBox="0 0 77 76" fill="none" xmlns="http://www.w3.org/2000/svg">
<path d="M73.4596 38C73.4596 57.3245 57.7623 73 38.3866 73C19.0108 73 3.31348 57.3245 3.31348 38C3.31348 18.6755 19.0108 3 38.3866 3C57.7623 3 73.4596 18.6755 73.4596 38Z" fill="#F1582A" stroke="#F1582A" stroke-width="6"/>
<path d="M44.4113 22V23.0721C46.4546 23.3002 47.9071 23.5764 48.7636 23.9008C49.6202 24.2252 50.1775 24.6967 50.4329 25.3125C50.6883 25.9284 50.8173 26.856 50.8173 28.0878V45.7199L44.0243 38.2585C44.3597 37.9518 44.6693 37.6274 44.9505 37.2827C46.1579 35.79 46.759 33.955 46.759 31.7779C46.759 28.5642 45.6006 26.1438 43.289 24.5192C40.9748 22.8997 37.6363 22.0862 33.2736 22.0862H18.3486V23.1582C19.7702 23.3863 20.7531 23.6449 21.3001 23.9389C21.8445 24.2303 22.2263 24.6688 22.4404 25.2542C22.6546 25.8397 22.7629 26.747 22.7629 27.9813V48.0009C22.7629 49.2352 22.6546 50.1451 22.4404 50.728C22.2263 51.3135 21.8445 51.7519 21.3001 52.0434C20.7557 52.3349 19.7702 52.5959 18.3486 52.8215V53.8936H34.414V52.8215C32.7602 52.6263 31.5889 52.3754 30.8923 52.0662C30.1983 51.757 29.7339 51.3109 29.5043 50.7255C29.2721 50.14 29.156 49.2327 29.156 47.9984V41.7637H31.7334C33.8206 41.7637 35.7091 41.5913 37.4093 41.2542L48.7894 54H53.7171V28.0878C53.7171 26.8205 53.7997 25.8955 53.9622 25.3125C54.1274 24.7271 54.5273 24.2582 55.1671 23.9008C55.8043 23.5435 56.8905 23.2672 58.4256 23.0721V22H44.4087H44.4113ZM37.786 26.2503C39.1404 27.662 39.819 29.6693 39.819 32.2645C39.819 32.7157 39.7932 33.1465 39.7467 33.5596L31.1607 24.1315H32.0843C34.5301 24.1315 36.4315 24.8386 37.786 26.2503ZM31.736 39.7184H29.1586V32.0086L35.5311 39.1481C34.4656 39.5283 33.2014 39.7209 31.736 39.7209V39.7184Z" fill="#1E1919"/>
</svg>
