<svg width="254" height="63" viewBox="0 0 254 63" fill="none" xmlns="http://www.w3.org/2000/svg">
<g clip-path="url(#clip0_188_23)">
<path d="M226.227 5.19157C228.371 4.90097 231.23 5.71691 232.915 7.07782C233.477 7.53228 234.88 9.55868 235.145 9.69519C235.813 10.0411 237.262 9.41128 238.081 9.91351L238.223 11.6053L241.415 11.3979L241.318 9.91389L243.009 9.77918L243.075 6.57624L241.443 6.44674L241.519 4.97136L244.677 4.73884C244.84 7.31451 246.368 8.84923 248.812 9.41692L249.074 12.2267C247.093 14.0167 247.61 11.015 246.889 10.8264L244.342 10.9571L244.35 12.7097L242.753 13.0441C242.968 14.7485 241.728 16.7185 244.437 16.1607C244.565 17.2235 244.067 18.4039 244.456 19.4573C244.669 20.0336 245.752 20.3996 246.231 20.8694C247.296 21.911 248.112 23.1276 248.562 24.5637C248.727 25.0911 249.175 29.017 250.127 27.9409C250.192 24.2446 248.418 20.9331 245.394 18.9103L245.354 15.1092L243.634 15.221L243.521 13.4901L245.241 13.3783L245.129 11.6499L246.759 11.7845L246.713 13.2827L249.905 13.0752L249.836 8.64122C247.229 8.70652 245.011 6.60664 245.613 3.93415L240.69 4.00364L240.754 6.98992L242.378 7.37781L242.486 8.84865L240.768 8.96025L240.482 10.7295L239.172 10.522L239.035 8.82247C238.907 8.7093 236.427 9.22502 235.651 8.72254C235.363 8.53546 234.463 7.05407 233.935 6.5801C231.899 4.75102 229.167 4.1475 226.514 4.00005L226.232 5.19372L226.227 5.19157Z" fill="#1E1919"/>
<path d="M251.418 2.31455C251.808 5.23749 251.455 8.18882 251.497 11.1145C251.57 15.9152 251.785 20.6894 251.945 25.4745C251.975 26.3479 251.249 28.225 252.815 27.6373L252.106 1.52597L240.169 1.54798C236.097 1.55721 231.923 1.50614 227.854 1.60442C227.242 1.61943 226.438 1.52788 226.034 2.10457C226.364 2.5592 226.722 2.38467 227.15 2.41141C230.121 2.59277 233.079 2.31868 236.03 2.31286C241.156 2.30206 246.295 2.36486 251.418 2.31455Z" fill="#1E1919"/>
<path d="M246.821 15.0113C247.002 15.9046 246.768 17.234 247.07 18.0451C247.321 18.7255 249.453 20.2905 249.816 21.2587C250.157 21.001 250.124 20.7626 250.141 20.3871C250.218 18.6513 249.781 16.8175 250.017 15.0615L246.821 15.0089L246.821 15.0113ZM247.376 15.9671C247.842 15.9442 248.923 15.7005 249.091 16.2474L249.04 18.8345C247.841 18.1611 247.215 17.4356 247.378 15.967L247.376 15.9671Z" fill="#1E1919"/>
<path d="M233.541 3.97485L236.512 7.19618L239.179 7.32538C238.841 6.56625 239.604 4.35445 238.976 3.97375L233.543 3.97222L233.541 3.97485ZM235.568 4.83497L238.267 4.65959L238.264 6.40538C236.84 7.12527 236.303 5.80381 235.565 4.83513L235.568 4.83497Z" fill="#1E1919"/>
<path d="M249.064 3.00801C246.57 2.66175 246.732 6.1053 248.161 6.44637C250.754 7.06638 251.331 3.32187 249.064 3.00801ZM249.119 3.74829C250.413 4.05105 249.706 5.92194 248.863 5.91227C247.566 5.89489 247.26 3.31365 249.119 3.74829Z" fill="#1E1919"/>
</g>
<g clip-path="url(#clip1_188_23)">
<path d="M27.2847 57.7855C25.1325 58.0091 22.3003 57.1044 20.6587 55.6916C20.1114 55.2199 18.7724 53.1507 18.5117 53.006C17.8549 52.6395 16.3864 53.2237 15.5839 52.6962L15.4947 51.0008L12.2981 51.1086L12.3482 52.5949L10.6537 52.6768L10.4886 55.8761L12.1157 56.0565L11.9931 57.5287L8.82938 57.6627C8.74732 55.0832 7.26728 53.5015 4.84232 52.8579L4.66863 50.0413C6.7037 48.3139 6.09343 51.298 6.80898 51.5091L9.3581 51.4578L9.4048 49.7059L11.0113 49.4214C10.8503 47.7111 12.1504 45.7807 9.42615 46.2539C9.33115 45.1875 9.86503 44.0232 9.50934 42.9583C9.31505 42.3756 8.24384 41.976 7.77982 41.4915C6.74736 40.4172 5.97001 39.1758 5.56445 37.7262C5.41613 37.194 5.09148 33.2561 4.10591 34.3019C3.92541 37.9944 5.59596 41.3597 8.55516 43.4757L8.47669 47.2762L10.1991 47.2181L10.2575 48.9517L8.53514 49.0098L8.59351 50.7409L6.96869 50.5555L7.06092 49.0595L3.86431 49.1673L3.7949 53.6013C6.40286 53.6173 8.55453 55.7854 7.86912 58.4378L12.7916 58.5218L12.8213 55.535L11.2101 55.0967L11.1481 53.6232L12.868 53.5652L13.2096 51.8058L14.5119 52.054L14.5964 53.757C14.7208 53.8741 17.2151 53.4359 17.9757 53.9624C18.2578 54.1584 19.1106 55.6671 19.624 56.1573C21.6016 58.049 24.3134 58.7374 26.9605 58.9675L27.2797 57.7832L27.2847 57.7855Z" fill="#1E1919"/>
<path d="M2.01601 59.8753C1.71784 56.9417 2.16237 54.0028 2.2113 51.0772C2.28803 46.2765 2.22283 41.498 2.21143 36.7102C2.20902 35.8363 2.9927 33.9827 1.40952 34.5214L1.30392 60.6421L13.2361 60.9924C17.3062 61.1101 21.4768 61.2914 25.5463 61.32C26.1589 61.3241 26.9599 61.4407 27.3812 60.8769C27.0654 60.4122 26.7019 60.5754 26.275 60.5354C23.3115 60.2615 20.3462 60.4432 17.3964 60.3569C12.2724 60.2079 7.13862 59.9848 2.01601 59.8753Z" fill="#1E1919"/>
<path d="M7.00748 47.3281C6.85419 46.4296 7.12941 45.1082 6.85332 44.2881C6.62349 43.6002 4.5416 41.9695 4.20849 40.9904C3.86014 41.2374 3.88543 41.4767 3.85625 41.8515C3.72526 43.584 4.10485 45.4305 3.81449 47.1783L7.00757 47.3306L7.00748 47.3281ZM6.48272 46.3555C6.01563 46.3638 4.92809 46.5738 4.77664 46.0219L4.90843 43.4376C6.08605 44.1481 6.68922 44.8928 6.48026 46.3556L6.48272 46.3555Z" fill="#1E1919"/>
<path d="M19.9354 58.7734L17.0662 55.461L14.4049 55.2487C14.7186 56.018 13.8871 58.2049 14.5033 58.6051L19.933 58.776L19.9354 58.7734ZM17.9364 57.8505L15.2336 57.9417L15.2904 56.1968C16.7362 55.5217 17.2314 56.8592 17.9388 57.8505L17.9364 57.8505Z" fill="#1E1919"/>
<path d="M4.3911 59.2558C6.87261 59.6796 6.81787 56.2327 5.40031 55.8472C2.8283 55.1466 2.13477 58.8713 4.3911 59.2558ZM4.35871 58.5141C3.07542 58.1712 3.83961 56.3232 4.68208 56.3592C5.9779 56.417 6.20297 59.0065 4.35871 58.5141Z" fill="#1E1919"/>
</g>
<defs>
<clipPath id="clip0_188_23">
<rect width="26.0619" height="27.9235" fill="white" transform="matrix(-0.997895 0.0648539 0.0648539 0.997895 252.007 0)"/>
</clipPath>
<clipPath id="clip1_188_23">
<rect width="26.0619" height="27.9235" fill="white" transform="matrix(0.999432 -0.033701 -0.033701 -0.999432 1.35547 62.1704)"/>
</clipPath>
</defs>
</svg>
