<svg width="62" height="86" viewBox="0 0 62 86" fill="none" xmlns="http://www.w3.org/2000/svg">
<path d="M51.0836 9.94939L54.3392 14.5312C63.0456 26.499 63.1977 42.3998 60.3438 56.4013C56.9212 73.1871 44.4328 87.1413 26.112 85.9256C2.14572 84.337 -3.42488 51.4341 1.80145 32.8683C7.93834 11.0631 30.54 -14.4661 51.0836 9.94939ZM49.5394 10.7474C40.2667 0.0424757 29.6295 -0.897252 18.6255 8.11469C16.0884 10.1905 13.4017 13.7555 11.5581 16.4852C8.799 20.5698 6.459 25 5.30147 29.8179C5.56591 30.427 5.96256 30.4444 6.54382 30.3524L6.77832 31.235C8.18282 30.7825 7.54418 31.2499 8.13791 31.7347C9.04847 32.478 9.95902 32.831 10.7673 33.8453C11.7477 35.0734 11.9947 36.8286 13.9081 37.2015L21.4345 35.0983C20.716 32.5377 21.5019 30.0491 24.5553 30.5488C27.3244 31.0013 26.1619 32.9131 26.6334 33.2512C27.4317 33.823 29.2628 33.7161 30.2282 33.721C29.5721 32.5576 31.2385 31.0087 31.2311 30.6159C31.2236 30.2952 30.8469 30.0541 30.7745 29.7955C30.4777 28.7042 31.8847 27.8017 31.9745 26.862C32.0318 26.2678 31.6676 25.7259 31.7001 25.1392C31.7325 24.5972 32.1366 24.3163 32.2115 23.8862C32.3362 23.1802 32.1092 22.3747 32.2364 21.6736C32.3811 20.8607 33.379 20.3063 33.4788 19.6599C33.5785 19.0135 33.2143 18.5089 33.3216 17.8053C33.8006 14.648 38.7425 15.6425 38.4806 18.4318C38.3833 19.4735 37.4602 19.8638 37.4528 19.9582C37.4203 20.3113 37.7147 20.7662 37.7247 21.1764C37.7646 22.7923 36.5023 22.9415 36.4474 23.1951C36.2104 24.279 38.2211 26.3424 35.4845 27.6252C36.5771 28.5078 36.3875 30.4021 34.9706 30.7378V30.9789C36.2379 31.2747 35.1377 33.7881 34.7211 34.7105C37.7496 35.6452 37.2856 32.1424 39.8127 32.478C43.1356 32.9205 42.3573 37.5794 39.461 38.3152C40.2044 38.8149 41.9656 40.3364 42.7564 40.1325C43.0059 40.0679 43.2404 39.7522 43.5946 39.6875C45.6677 39.3146 44.8395 41.2165 45.7101 42.0344C46.0444 42.3501 49.0155 43.9089 49.3274 43.8542C50.3302 42.8747 50.8092 41.5745 52.4582 42.0244C52.9496 42.1587 52.9372 42.641 53.0669 42.6708C53.5558 42.7827 54.6535 41.4303 55.609 41.2314C56.8239 40.9778 57.238 41.5745 57.7943 41.5794C58.5352 41.5869 59.7351 40.4135 60.5434 40.8709L60.9051 40.5577C60.4262 37.5297 60.2241 34.4271 59.5979 31.4239C58.0163 23.8116 54.5961 16.5722 49.5444 10.7424L49.5394 10.7474ZM6.10226 33.4003C5.54346 32.7639 6.65608 32.125 5.8977 31.9808C2.8542 31.399 3.45043 36.8684 2.58977 38.621L3.03382 39.3146L6.27689 39.69C6.31181 39.0984 6.31431 38.5763 6.08729 38.0119C5.83284 37.383 3.02634 35.7024 4.90981 35.7024C5.8029 35.7024 6.79827 36.1673 7.77369 35.9585C8.03314 34.5737 6.69599 34.0765 6.10226 33.4003ZM40.4239 34.4967C39.5907 34.2704 39.0044 33.9945 38.4606 34.8447L38.9845 35.5806L38.4606 36.9529C39.2963 37.1766 39.1242 36.6198 39.4734 36.3637C40.2568 35.7894 40.7532 36.1201 40.4239 34.4967ZM33.0771 39.8317C29.3925 34.9989 21.7912 36.4184 16.6996 37.7708C16.1658 37.9125 13.7534 38.6683 13.6387 38.9293L13.5064 45.48C13.6062 45.8405 16.8443 47.3496 17.4081 47.3869C18.0567 47.4291 18.6754 47.0985 19.3739 47.1233C21.5867 47.2004 23.1907 47.546 25.4958 47.0313C26.1245 46.8921 28.8037 46.1985 27.963 45.1743L19.1668 45.3731C18.1016 44.6248 18.3162 43.0611 19.7456 43.1705L19.8753 44.6621C20.5539 44.7491 19.8903 44.1152 20.3568 43.6652C21.0728 42.9741 25.3411 44.6149 26.7357 43.5459C27.2496 43.1556 26.8504 42.8349 26.4787 42.5515L17.7698 42.4197L17.6077 41.4203C19.7107 40.6671 21.921 41.0698 24.0988 40.4209C26.0945 39.8243 27.035 38.1462 29.1555 39.1381C29.5896 39.342 29.859 39.792 30.2981 39.9859C30.7122 40.1674 32.7678 40.9256 33.1046 40.9281C34.2746 40.9331 33.3091 40.1375 33.0771 39.8342V39.8317ZM48.1748 50.6212L49.0779 44.9008C44.348 43.4092 40.3092 39.0909 35.215 39.1903C35.3872 40.8659 35.1776 42.0369 33.344 42.4098C32.0768 41.8504 30.7147 41.5745 29.4075 41.127C28.3323 40.759 27.7335 39.7547 26.4887 41.0598C26.4238 41.6689 27.3718 41.3905 27.9181 41.6167C29.2902 42.1835 28.6266 42.897 28.9085 43.5906C29.2553 44.4483 30.4752 44.779 29.9987 46.38C30.8045 46.8051 31.4855 46.1861 32.1291 46.1587C33.6334 46.0941 35.3672 46.5739 36.5771 46.6211C37.6024 46.6609 38.2111 45.6665 39.4759 46.7579C41.1848 48.2321 39.8002 49.9699 39.9599 50.129C42.6392 49.7983 45.4507 50.0618 48.1773 50.6187L48.1748 50.6212ZM12.763 39.9386C11.0991 39.4688 11.391 44.2992 11.7701 44.6597C12.4213 44.7367 12.1618 44.6497 12.2716 44.2967C12.6757 42.999 12.4961 41.3085 12.763 39.9386ZM6.02992 40.682C5.83783 40.4881 1.76154 40.4408 2.28542 41.925L5.88273 41.9523L6.02992 40.682ZM57.1681 42.1736C53.8527 42.4794 53.708 44.0406 56.5819 45.6193C58.1959 44.871 60.5933 44.3787 60.1617 42.1761L57.5498 43.4191L57.1681 42.1736ZM6.02493 42.9194L2.33781 43.4713C1.52704 44.4931 1.81892 45.6789 1.78898 46.8971C3.93938 46.6957 6.71346 45.5074 6.02742 42.9194H6.02493ZM59.089 49.8083C59.4632 49.2887 59.8823 46.8822 59.9671 46.0966C59.9971 45.8281 60.3389 45.7709 59.7875 45.4104L57.9215 46.7728C59.7227 48.0233 57.6072 49.6467 56.6692 50.753L57.0409 51.3645C57.1706 51.372 59.0117 49.9127 59.0865 49.8058L59.089 49.8083ZM6.02742 46.4024C4.41836 47.1681 3.10616 47.8542 1.28007 48.0332C1.18527 56.2795 3.52527 65.5077 7.82358 72.5805C16.3978 86.6814 35.0205 87.7951 46.945 77.1076C49.018 75.248 50.5647 72.8813 52.4382 71.151C53.0245 70.6091 54.4814 67.9689 54.888 67.1261C56.0006 64.824 56.6991 62.3032 57.3976 59.8569C55.145 58.8625 53.5309 57.8755 51.8046 56.1029C51.4279 55.7151 51.1011 54.8674 50.8591 54.6834C50.0908 54.0992 47.7557 53.7313 47.5088 52.2048C47.419 51.643 48.1823 51.3397 46.698 51.0016C42.4246 50.0221 37.2706 52.4982 33.1544 53.423C32.2489 53.8829 31.1338 56.7866 30.8369 57.8283C29.869 61.2242 29.385 66.7432 29.2229 70.3853C29.1231 72.6576 29.3176 74.9621 29.2328 77.2344C27.3893 77.5476 27.6512 76.2897 27.726 74.8602C28.0329 69.0876 28.4295 63.0863 28.472 57.4802C28.4844 55.9961 29.2403 52.7368 27.5539 52.1824C24.0414 51.0264 20.7235 49.5646 17.2534 48.2769C15.8764 47.7647 14.2848 47.4987 12.9152 46.8896C12.2317 47.8368 11.5132 49.3583 10.5403 50.027C9.85175 50.4994 8.85887 50.7356 8.0481 51.2726C6.51139 52.2893 5.93512 53.955 4.41587 54.8599L3.53774 53.9923L4.16141 53.1197L4.53062 53.863C4.52563 52.8064 5.63077 52.267 6.03989 51.7002C6.21203 51.464 6.20205 50.9991 6.42407 50.6436C6.53633 50.4646 6.928 50.4273 6.98288 50.3403C7.20491 49.9773 6.43655 48.2918 5.92514 48.4086C5.34388 48.9183 4.7277 49.3657 4.14894 49.8779C3.67744 50.293 3.53026 51.275 2.78685 50.7555C2.69454 50.0196 3.5103 49.0351 4.0242 48.5081C4.4009 48.1227 6.53384 46.9617 6.02992 46.4073L6.02742 46.4024ZM56.5494 47.1482C55.7212 47.8095 56.2177 48.9481 57.2754 48.6224L57.6671 48.0208L56.5494 47.1457V47.1482ZM38.2086 47.3993L32.4734 50.129C34.3818 49.9177 36.874 48.8611 38.2086 47.3993ZM34.9656 47.6479C34.5415 47.5658 34.2371 47.7796 33.8754 47.9263C32.8925 48.3266 31.5753 48.9928 30.7246 49.6318C32.179 49.3409 33.8754 48.6945 34.9656 47.6479ZM20.9979 48.8835C24.3208 49.5224 28.7763 51.9015 32.0967 51.8891C34.2072 51.8816 36.9688 50.6784 38.7026 49.5075C38.2785 48.9133 38.276 49.3011 37.8843 49.4304C36.5846 49.8605 33.354 51.8245 32.2439 50.9817C29.8939 49.1992 26.5785 48.8511 23.6298 48.3838L20.9954 48.8835H20.9979ZM55.6713 53.1122L55.5491 51.1259L54.4265 51.7424C54.8481 52.1849 54.8755 53.1843 55.6688 53.1122H55.6713ZM55.1699 55.3522C55.5765 54.8127 53.5983 51.5386 52.9297 52.1203C52.4233 53.7934 53.8178 54.7058 55.1699 55.3522ZM58.9144 52.1203C58.0013 52.0109 57.4525 52.9307 57.0184 53.597C56.9062 54.0321 57.6521 54.2782 57.8043 54.6138C58.2134 55.5113 56.9062 56.9159 56.3 57.5648C55.4044 57.4653 52.4682 53.8332 51.9343 54.3577C51.7472 56.0035 55.7487 58.7332 57.0035 58.3031C58.4205 57.8158 58.5851 53.4478 58.9169 52.1203H58.9144ZM29.9762 52.8661V56.3466L31.478 53.4876C31.5778 52.891 30.3629 52.9556 29.9762 52.8661Z" fill="#1E1919"/>
</svg>
