<?xml version="1.0" encoding="UTF-8"?>
<svg id="Layer_2" data-name="Layer 2" xmlns="http://www.w3.org/2000/svg" viewBox="0 0 419.14 484.26" fill="#939399">
  <g id="Layer_3" data-name="Layer 3">
    <g>
      <polygon points="163.99 118.75 116.3 225.6 121.3 239.6 103.3 232.6 69.3 241.6 62.3 261.6 48.3 241.6 108.19 41.29 162.29 113.43 163.99 118.75"/>
      <polygon points="183.3 332.6 152.31 373.12 73.3 249.6 110.3 241.6 183.3 332.6"/>
      <polygon points="338.3 200.6 271.27 159.37 251.4 206.06 251.25 206.21 388.3 271.6 383.3 215.6 378.3 201.6 358.3 195.6 338.3 200.6"/>
      <polygon points="395.3 203.6 388.3 215.6 382.3 198.6 357.3 189.6 338.3 193.6 341.17 30.08 344.71 23.33 389.8 72.1 395.3 203.6"/>
      <polygon points="228.53 121.1 174.8 136.1 166.8 111.1 109.8 35.1 182.84 0 189.14 5.01 228.53 121.1"/>
      <polygon points="340.76 20.1 336.38 28.44 300.85 96.1 295.25 121.1 257.63 106.1 269.58 35.1 274.8 35.1 279.5 31.8 289.96 2.9 335.9 18.45 335.9 18.46 340.76 20.1"/>
      <polygon points="266.8 157.1 246.8 204.1 243.47 205.48 217.72 216.1 193.24 181.83 193.24 157.1 257.63 141.79 265.01 154.12 266.8 157.1"/>
      <polygon points="109.8 327.4 109.8 389.23 87.8 389.23 87.8 302.1 109.8 327.4"/>
      <polygon points="395.8 378.1 365.8 367.1 340.8 286.1 361.8 275.1 395.8 378.1"/>
      <path d="M409.52,419.47l-71.18,6.65-3.66,2.15-10.04,14.6-96.17,31.06-77.4-29.07,113.73-30.76,16-16,65-8s43.82,20.41,63.72,29.37Z"/>
      <polygon points="223.03 477.23 222.83 478.48 222.41 482.34 222.22 484.03 142.3 454 142.42 452.3 142.8 447.1 223.03 477.23"/>
      <polygon points="322.89 448.67 231.67 477.78 232.77 479.57 232.41 482.8 232.25 484.26 327.8 455.28 327.8 454.85 327.8 447.1 322.89 448.67"/>
      <path d="M419.14,423.6v7.5l-85.1,22.53h-.01l-1.23.25v-6.78l-3.33-2.43,9.33-13.57s66.55-4.99,80.3-7.49h-.01s.05-.01.05-.01Z"/>
      <polygon points="78.96 466.47 0 466.47 30.31 417.89 34.4 422.1 51.2 422.1 55.22 417.96 78.96 466.47"/>
      <path d="M51.2,417.1h-16.8l.15-5,4.06-137h.4c1.03.61,2.19.94,3.39.94s2.37-.32,3.43-.94h1.22l4,137,.15,5Z"/>
      <polygon points="47.8 262.1 44.8 269.1 40.8 270.1 40.8 252.1 47.8 262.1"/>
    </g>
  </g>
</svg>