<svg width="90" height="126" viewBox="0 0 90 126" fill="none" xmlns="http://www.w3.org/2000/svg">
<g clip-path="url(#clip0_140_2216)">
<path d="M37.1554 104.519L37.6189 110.936C39.1317 114.168 39.5642 118.112 40.5884 121.413C40.8721 122.329 40.9295 123.276 41.9978 123.487C42.7987 123.09 42.5822 112.365 42.4477 110.769C41.8848 104.024 37.7926 98.2267 41.1855 91.6805L47.6784 106.993C48.7043 107.763 48.8873 106.813 49.1366 105.863C49.5198 104.387 49.847 98.0299 49.4058 96.7659C48.2233 93.3733 42.221 88.8562 41.4489 86.6626C40.6146 84.2951 42.8689 74.3025 44.0669 71.7553C44.9654 74.2025 46.6006 76.1871 47.6997 78.4967C50.3364 84.0422 50.9133 90.4574 53.653 95.7561C54.5744 95.2218 54.4068 79.9475 53.8431 78.2415C52.6306 74.5429 46.8713 71.721 45.4632 68.7914C44.7101 67.2279 49.0152 62.0964 49.7184 60.2144L53.5988 55.516C53.7472 57.1253 53.7449 60.6134 54.1202 61.9212C54.7459 64.1156 57.7361 67.5798 58.6886 70.2193C59.3951 72.157 59.6028 75.2922 60.2499 77.4083C60.4343 78.0096 61.4769 81.5377 62.0962 81.2349C62.1915 78.3148 64.3981 67.2185 63.6919 65.3102C63.1692 63.8857 59.3445 61.4478 58.1748 59.6408C57.6489 58.8366 55.3646 52.1091 55.509 51.5149L67.8214 38.4346C63.0613 46.7726 65.5515 55.0399 67.8282 63.2344C68.0872 64.1614 67.9679 65.1324 69.1468 65.3489C71.9841 55.3594 71.5407 44.9365 70.8684 34.9093C71.9197 31.9897 83.7719 23.8617 86.507 19.6932C87.7026 17.869 86.175 16.2248 84.8465 17.6608L69.0273 32.7601C64.5546 32.1995 57.8963 29.9512 53.5245 30.24C49.7326 30.4939 38.3476 37.286 35.5252 40.2161C35.0319 40.7284 33.9307 41.9216 34.4226 42.6083L65.3192 35.8601C62.8001 40.7683 57.7589 44.7462 53.967 48.7672L39.8406 48.6799C35.6722 51.2315 24.0821 56.2428 21.1595 59.7721C19.742 61.4831 22.8088 60.7535 23.3468 60.6487C32.8047 58.8523 42.5389 54.3259 51.9 51.8354L42.583 66.9633C41.8194 67.5311 37.1446 67.261 35.592 67.6466C34.5247 67.9112 33.7273 69.0784 33.5011 69.1242C33.3493 69.1519 32.6921 68.1797 31.5787 68.2044C24.9122 68.3516 19.5943 77.4073 15.6872 82.5548C15.9215 83.5073 19.9777 81.4325 20.6494 81.1165C27.6112 77.8381 34.686 72.8252 41.8286 70.0368L38.7553 85.7C35.6484 88.3136 31.1714 88.2412 28.1819 91.024C24.6686 94.2983 20.9104 100.77 18.9097 105.199C26.4979 101.482 32.124 94.6624 38.3895 88.99L37.4436 100.522C31.0168 104.345 26.8854 110.805 22.8696 117.199C23.3769 119.106 31.8221 112.354 32.592 111.548C34.5869 109.479 36.1527 107.3 37.1333 104.524L37.1554 104.519Z" fill="#1E1919"/>
</g>
<defs>
<clipPath id="clip0_140_2216">
<rect width="46.2037" height="117.31" fill="white" transform="matrix(0.91388 0.405984 0.405984 -0.91388 0 107.208)"/>
</clipPath>
</defs>
</svg>
