<svg viewBox="0 0 645 320" fill="none" xmlns="http://www.w3.org/2000/svg">
<rect y="0.947266" width="643.755" height="319.053" fill="#D9D9D9"/>
<path d="M324.99 173.752L645 0.439468H1.86768L324.99 173.752Z" fill="#E7E7E7"/>
<g clip-path="url(#clip0_172_14)">
<path d="M26.0903 236.303C25.227 241.902 27.2121 249.424 30.6753 253.899C31.8318 255.39 37.0432 259.157 37.3858 259.858C38.2542 261.622 36.5413 265.387 37.8097 267.553L42.2114 268.004L41.5131 276.349L37.6507 276.027L37.2161 280.448L28.8662 280.469L28.6094 276.191L24.7608 276.322L23.9988 284.578C30.7029 285.124 34.6267 289.197 35.9854 295.621L43.2945 296.437C48.0571 291.337 40.2093 292.55 39.7534 290.651L40.22 283.992L44.7867 284.095L45.737 279.931C50.1681 280.571 55.363 277.42 53.7754 284.483C56.5389 284.868 59.6394 283.622 62.3653 284.688C63.8567 285.271 64.757 288.124 65.9575 289.399C68.6192 292.237 71.7492 294.429 75.4695 295.676C76.8356 296.132 87.0442 297.487 84.193 299.93C74.5572 299.927 66.0154 295.127 60.8936 287.117L50.9901 286.834L51.3663 282.338L46.8613 281.962L46.4851 286.459L41.9864 286.084L42.2566 290.356L46.163 290.307L45.4648 298.652L33.9134 298.264C34.2123 291.443 28.8498 285.538 21.8556 286.989L22.28 274.107L30.0589 274.413L30.9895 278.682L34.8171 279.033L35.1928 274.543L39.8174 273.876L39.3414 270.439L34.9194 269.999C34.6308 269.659 36.0972 263.193 34.8262 261.136C34.3529 260.373 30.5369 257.95 29.3279 256.544C24.662 251.13 23.2242 243.951 22.9711 236.999L26.0956 236.316L26.0903 236.303Z" fill="#1E1919"/>
<path d="M17.3481 302.109C24.9459 303.266 32.6543 302.481 40.2764 302.728C52.7832 303.144 65.2139 303.929 77.6758 304.573C79.9503 304.692 84.8778 302.881 83.2687 306.951L15.2591 303.873L15.9063 272.626C16.1315 261.968 16.2047 251.039 16.6618 240.394C16.7312 238.792 16.5324 236.682 18.0552 235.653C19.2236 236.538 18.7511 237.468 18.7996 238.589C19.1254 246.374 18.265 254.105 18.104 261.829C17.8226 275.247 17.7323 288.7 17.3481 302.109Z" fill="#1E1919"/>
<path d="M50.6625 290.67C52.9813 291.186 56.4572 290.636 58.5559 291.463C60.3167 292.152 64.2896 297.806 66.7947 298.803C66.1064 299.682 65.4868 299.585 64.5072 299.613C59.9801 299.733 55.2229 298.503 50.6352 299.038L50.656 290.669L50.6625 290.67ZM53.1258 292.167C53.0431 293.387 52.3544 296.204 53.7714 296.671L60.5157 296.658C58.8201 293.487 56.9604 291.815 53.1252 292.173L53.1258 292.167Z" fill="#1E1919"/>
<path d="M22.5579 255.392L30.8057 263.32L31.0106 270.307C29.0491 269.387 23.2475 271.281 22.2865 269.618L22.5509 255.398L22.5579 255.392ZM24.6992 260.738L24.1088 267.794L28.6584 267.869C30.6047 264.175 27.1876 262.709 24.6997 260.731L24.6992 260.738Z" fill="#1E1919"/>
<path d="M19.2722 295.978C18.4931 289.435 27.4588 290.021 28.277 293.777C29.7646 300.593 19.9781 301.928 19.2722 295.978ZM21.1986 296.158C21.9237 299.558 26.834 297.797 26.8505 295.589C26.8693 292.194 20.1578 291.272 21.1986 296.158Z" fill="#1E1919"/>
</g>
<g clip-path="url(#clip1_172_14)">
<path d="M560.482 299.351C566.102 300.142 573.613 298.065 578.052 294.552C579.531 293.379 583.239 288.13 583.937 287.779C585.694 286.89 589.487 288.552 591.641 287.259L592.037 282.86L600.406 283.451L600.133 287.31L604.567 287.687L604.694 296.02L600.411 296.331L600.592 300.17L608.872 300.826C609.334 294.128 613.365 290.161 619.784 288.723L620.508 281.418C615.339 276.73 616.653 284.547 614.757 285.026L608.08 284.645L608.125 280.086L603.941 279.19C604.526 274.76 601.303 269.615 608.399 271.11C608.75 268.347 607.462 265.269 608.496 262.535C609.061 261.039 611.907 260.104 613.17 258.89C615.979 256.197 618.136 253.046 619.338 249.317C619.777 247.948 621.005 237.743 623.488 240.557C623.608 250.174 618.907 258.759 610.948 263.973L610.79 273.86L606.281 273.542L605.962 278.042L610.471 278.361L610.153 282.855L614.43 282.531L614.331 278.633L622.7 279.224L622.458 290.757C615.62 290.546 609.772 295.972 611.315 302.934L598.404 302.674L598.612 294.907L602.877 293.924L603.181 290.1L598.677 289.782L597.95 285.175L594.513 285.693L594.128 290.112C593.791 290.405 587.294 289.023 585.25 290.318C584.492 290.8 582.112 294.639 580.719 295.863C575.355 300.589 568.18 302.115 561.219 302.456L560.495 299.346L560.482 299.351Z" fill="#1E1919"/>
<path d="M626.52 307.241C627.582 299.644 626.698 291.96 626.85 284.351C627.108 271.863 627.735 259.448 628.223 247.002C628.313 244.731 626.436 239.836 630.535 241.391L628.314 309.303L597.001 309.054C586.321 308.965 575.371 309.03 564.7 308.709C563.094 308.66 560.983 308.885 559.933 307.379C560.805 306.201 561.742 306.661 562.865 306.599C570.66 306.175 578.416 306.935 586.156 306.998C599.602 307.108 613.081 307.028 626.52 307.241Z" fill="#1E1919"/>
<path d="M614.637 274.138C615.125 271.818 614.53 268.356 615.332 266.251C616 264.485 621.613 260.448 622.58 257.935C623.47 258.611 623.381 259.23 623.421 260.208C623.599 264.724 622.427 269.487 623.021 274.059L614.637 274.145L614.637 274.138ZM616.106 271.661C617.329 271.728 620.16 272.38 620.61 270.959L620.511 264.229C617.357 265.961 615.704 267.838 616.112 271.661L616.106 271.661Z" fill="#1E1919"/>
<path d="M579.651 302.635L587.489 294.303L594.486 294.009C593.59 295.979 595.56 301.745 593.907 302.725L579.657 302.641L579.651 302.635ZM584.98 300.43L592.056 300.929L592.074 296.388C588.348 294.492 586.922 297.921 584.973 300.429L584.98 300.43Z" fill="#1E1919"/>
<path d="M620.354 305.399C613.808 306.259 614.282 297.304 618.034 296.44C624.844 294.869 626.305 304.619 620.354 305.399ZM620.51 303.474C623.907 302.707 622.08 297.829 619.868 297.841C616.466 297.865 615.628 304.575 620.51 303.474Z" fill="#1E1919"/>
</g>
<path d="M360.46 173C360.46 192.325 344.762 208 325.387 208C306.011 208 290.313 192.325 290.313 173C290.313 153.675 306.011 138 325.387 138C344.762 138 360.46 153.675 360.46 173Z" fill="#F1582A" stroke="#F1582A" stroke-width="6"/>
<path d="M331.411 157V158.072C333.455 158.3 334.907 158.576 335.764 158.901C336.62 159.225 337.177 159.697 337.433 160.313C337.688 160.928 337.817 161.856 337.817 163.088V180.72L331.024 173.259C331.36 172.952 331.669 172.627 331.95 172.283C333.158 170.79 333.759 168.955 333.759 166.778C333.759 163.564 332.601 161.144 330.289 159.519C327.975 157.9 324.636 157.086 320.274 157.086H305.349V158.158C306.77 158.386 307.753 158.645 308.3 158.939C308.844 159.23 309.226 159.669 309.44 160.254C309.655 160.84 309.763 161.747 309.763 162.981V183.001C309.763 184.235 309.655 185.145 309.44 185.728C309.226 186.313 308.844 186.752 308.3 187.043C307.756 187.335 306.77 187.596 305.349 187.821V188.894H321.414V187.821C319.76 187.626 318.589 187.375 317.892 187.066C317.198 186.757 316.734 186.311 316.504 185.725C316.272 185.14 316.156 184.233 316.156 182.998V176.764H318.733C320.821 176.764 322.709 176.591 324.409 176.254L335.789 189H340.717V163.088C340.717 161.821 340.8 160.895 340.962 160.313C341.127 159.727 341.527 159.258 342.167 158.901C342.804 158.543 343.89 158.267 345.426 158.072V157H331.409H331.411ZM324.786 161.25C326.14 162.662 326.819 164.669 326.819 167.265C326.819 167.716 326.793 168.147 326.747 168.56L318.161 159.131H319.084C321.53 159.131 323.431 159.839 324.786 161.25ZM318.736 174.718H316.159V167.009L322.531 174.148C321.466 174.528 320.201 174.721 318.736 174.721V174.718Z" fill="#1E1919"/>
<defs>
</defs>
</svg>
