<?xml version="1.0" encoding="UTF-8"?>
<svg id="Layer_2" data-name="Layer 2" xmlns="http://www.w3.org/2000/svg" viewBox="0 0 399.59 456.34">
  <g id="Layer_10" data-name="Layer 10">
    <g>
      <polygon points="295.34 4 232.34 117.52 220.34 266 204.34 265.83 204.34 148 176.98 0 186.81 0 214.34 119 276.34 4 295.34 4"/>
      <path d="M93.91,355.62l-40.13,60.66-7.74-7.26c-.02-.58-.03-1.15-.02-1.72.03-2.24.16-6.45.72-11.36l10.6-26.72c.67-.23,1.28-.1,2.08.08,4.48.99,6.83-.81,8.1-6.23l.34-1.42-.88-1.17c-3.31-4.42-6.54-6.46-10.3-6.25l9.31-16.4.02-.02,10.75,1.62,17.15,16.19Z"/>
      <path d="M32.8,422.02l-1.43,7.81-19.82-10.65-11.55-22.91,5-56.28,18.43-5.36c-.05,11.02.79,21.03,2.06,31.1l-13.94,9.24,17.33,14.21c.98,6.5,1.97,13.26,2.87,20.61.49,3.92.82,8.03,1.05,12.23Z"/>
      <path d="M125.03,178.13l-1.02,1.2.36,1.54c.43,1.8,1.96,2.96,3.78,2.87,1.11-.05,4.06-.18,13.56-12.2.75-.93,1.76-2.24,2.85-3.74-4.87,19.07-15.86,46.39-23.87,58.7-3.57,5.48-8.21,9.19-13.13,13.12-4.32,3.46-8.8,7.04-12.57,11.94l-.71.94.07,1.17c.16,2.41,1.09,3.92,2.78,4.49,1.3.44,2.43.11,3.4-.51l-52.12,77.5-1.35,2.01.15,1.16c.18,1.49.57,4.6,3.37,5.1,2.7.48,4-2.01,4.78-3.51.18-.34.44-.85.52-.96.7-.79,1.4-1.58,2.11-2.35l1.39.21-8.84,15.56-10.83,19.08,11.5-8.19c1.21-.86,2.24-1.52,3.14-1.97l.87,2.04c-1.43.52-2.99,1.54-4.61,3.39-9.53,10.9-10.75,31.97-10.84,40.52-.05,5.52.96,11.45,1.94,17.18,1.12,6.53,2.18,12.7,1.57,17.53-.58,4.6-1.75,9.28-2.99,14.25-.01.04-.02.09-.03.14-.28-5.4-.42-10.89-.55-16.31-.27-10.43-.55-21.2-1.75-31-.37-3.05-.76-5.99-1.16-8.85-.24-1.73-.48-3.42-.72-5.09-.54-3.72-1.08-7.32-1.62-10.86-1.17-7.71-2.28-15.02-3.13-22.36-1.09-9.34-1.76-18.73-1.62-29.07.19-13.57,1.79-28.77,5.7-47.62l1.09,30.83,5.12-30.47c.74-4.4.85-8.71.97-12.87.12-4.34.23-8.44.99-12.61,2.18-12,6.97-22.79,12.04-34.2,2.13-4.8,4.3-9.69,6.27-14.71l1.74,14.69,3.98-18.13c3.08-14.04,8.63-27.12,13.13-36.94,6.41-14.02,12.93-24.46,19.25-34.57,12.64-20.25,23.56-37.73,28.17-75.18,1.01-8.2.92-15.64.83-22.83-.04-3.33-.07-6.55-.01-9.81,2.73,4.04,4.91,8.51,6.31,14.67l3.15,13.93,3-14.21,7.46,22.24c1.04,5.41-.88,12.08-2.74,18.53-.62,2.17-1.26,4.41-1.79,6.59l5.94,1.9,2.12-5.35c.15,1.96.31,3.92.48,5.86.7,8.36,1.43,17.01.48,24.58-3.53,28.16-19.28,50.31-28.36,61.01Z"/>
      <polygon points="378.72 276.84 373.89 381.16 370.2 441.29 332.68 446.3 316.42 399.24 305.16 313.73 261.21 332.49 247.63 316.23 316.42 257.45 319.36 250.83 323.95 249.45 361.87 260.23 378.72 276.84"/>
      <polygon points="399.59 88.29 399.59 266.1 393.85 282.99 379.11 268.46 365.12 254.66 323.9 242.93 322.71 243.29 305.63 248.41 399.59 88.29"/>
      <rect x="254.51" y="136.76" width="20.01" height="21.26"/>
    </g>
  </g>
</svg>