<?xml version="1.0" encoding="UTF-8"?>
<svg id="Layer_2" data-name="Layer 2" xmlns="http://www.w3.org/2000/svg" viewBox="0 0 426.03 412.2" fill="#939399">
  <g id="Layer_5" data-name="Layer 5">
    <g>
      <polygon points="426.03 235.72 414.16 262.21 401.15 266.46 371.87 245.06 356.61 258.03 347.06 266.15 341.59 262.71 349.21 157.68 349.21 157.66 352.35 114.42 355.29 0 407.53 76.07 415.54 224.27 426.03 235.72"/>
      <polygon points="350.13 405.16 348.42 412.2 10.66 403.28 6.49 380.77 27.5 381.08 44.76 393.93 51.9 381.44 319.3 385.37 319.51 391.9 350.13 405.16"/>
      <polygon points="54.73 376.48 74.83 341.3 67.6 327.32 77.25 313.77 316.64 320.19 318.68 326.65 317.46 328.54 319.14 380.37 54.73 376.48"/>
      <polygon points="331.17 307.25 322.19 321.19 320.33 315.29 76.05 308.74 74.72 308.7 65.02 322.33 59.9 312.44 73.17 295.88 141.22 297.16 329.13 300.7 330.85 306.24 331.17 307.25"/>
      <polygon points="69.14 341.18 43.22 386.55 0 354.37 22.32 296.13 22.45 295.79 25.22 258.42 49.55 254.83 68.78 264.84 51.12 306.34 53.97 311.85 55.23 314.28 56.48 316.71 61.76 326.91 64.34 331.9 69.14 341.18"/>
      <polygon points="128.01 107.02 94.49 211.43 94.49 228.67 77.19 265.09 52.33 242.12 15.86 253.26 .26 225.93 26.12 206.76 91.11 2.12 128.01 107.02"/>
      <polygon points="346.69 123.38 336.38 265.35 346.52 271.71 342.76 274.84 336.66 298.72 334.7 301.76 332.84 295.77 141.34 292.16 145.81 114.24 152.51 113.94 152.19 116.74 173.15 116.74 173.57 112.99 317.47 106.5 318.07 108.84 343.19 107.58 342.6 105.36 345.35 105.24 346.69 123.36 346.69 123.38"/>
      <polygon points="336.78 102.89 321.9 103.64 295.79 1.74 309.96 1.74 336.78 102.89"/>
      <polygon points="372.22 301.91 386.24 341.95 363.82 387.98 350.98 400.08 324.41 388.57 324.31 385.44 324.29 384.94 324.23 382.94 324.16 380.94 324.15 380.44 322.83 339.82 322.51 329.94 324.15 327.39 333.11 313.48 334.88 310.73 336.64 307.99 337.77 306.24 341.31 300.74 347.21 277.64 357.43 269.12 369.24 259.27 391.46 272.09 372.22 301.91"/>
      <polygon points="180.99 1.74 168.67 111.74 157.78 111.74 170.22 1.74 180.99 1.74"/>
    </g>
  </g>
</svg>