<svg width="25" height="21" viewBox="0 0 25 21" fill="none" xmlns="http://www.w3.org/2000/svg">
<path d="M13.0208 20.8576C12.6877 20.8574 12.3635 20.7504 12.0957 20.5523L12.0527 20.5191L6.0983 15.6363H1.5625C1.1481 15.6363 0.75067 15.4717 0.457645 15.1786C0.16462 14.8856 0 14.4882 0 14.0738V6.78278C0 6.36838 0.16462 5.97096 0.457645 5.67793C0.75067 5.3849 1.1481 5.22029 1.5625 5.22029H6.097L12.0514 0.337479L12.0944 0.304276C12.3272 0.132876 12.6029 0.0294148 12.891 0.00540111C13.1791 -0.0186126 13.4682 0.0377626 13.7261 0.168256C13.9841 0.298749 14.2008 0.498243 14.3521 0.744548C14.5034 0.990852 14.5835 1.27431 14.5833 1.56339V19.2938C14.5833 19.7082 14.4187 20.1057 14.1257 20.3987C13.8326 20.6917 13.4352 20.8563 13.0208 20.8563V20.8576Z" fill="#1E1919"/>
<path d="M18.75 15.637C18.5723 15.6369 18.3976 15.5913 18.2425 15.5047C18.0874 15.4181 17.9571 15.2932 17.8638 15.1419C17.7706 14.9907 17.7176 14.8181 17.7098 14.6406C17.7021 14.4631 17.7399 14.2866 17.8196 14.1279C18.4375 12.8974 18.7506 11.6539 18.7506 10.4286C18.7506 9.16823 18.4472 7.9599 17.8229 6.73529C17.7033 6.4899 17.6848 6.20737 17.7713 5.94848C17.8579 5.68958 18.0427 5.47502 18.2858 5.35096C18.529 5.2269 18.8112 5.20326 19.0716 5.28512C19.332 5.36698 19.5499 5.5478 19.6784 5.78867C20.4557 7.31406 20.8333 8.83164 20.8333 10.4286C20.8333 11.9801 20.4427 13.5393 19.681 15.0628C19.5943 15.2354 19.4613 15.3805 19.2969 15.4819C19.1325 15.5833 18.9431 15.637 18.75 15.637Z" fill="#1E1919"/>
<path d="M21.8749 18.7619C21.692 18.7621 21.5123 18.7141 21.3538 18.6227C21.1953 18.5313 21.0637 18.3998 20.9722 18.2415C20.8806 18.0831 20.8324 17.9034 20.8324 17.7205C20.8324 17.5375 20.8805 17.3578 20.972 17.1994C22.2005 15.0542 22.9166 13.2574 22.9166 10.4286C22.9166 7.55621 22.2044 5.77235 20.9746 3.66103C20.8476 3.42297 20.818 3.14494 20.8919 2.88549C20.9659 2.62603 21.1376 2.40537 21.3709 2.26997C21.6043 2.13457 21.8811 2.09498 22.143 2.15954C22.405 2.2241 22.6316 2.38778 22.7753 2.61611C24.1484 4.97027 24.9999 7.10048 24.9999 10.4286C24.9999 13.7072 24.1497 15.8479 22.7786 18.2411C22.687 18.3997 22.5553 18.5313 22.3967 18.6227C22.238 18.7142 22.0581 18.7622 21.8749 18.7619Z" fill="#1E1919"/>
</svg>
