<?xml version="1.0" encoding="UTF-8"?>
<svg id="Layer_2" data-name="Layer 2" xmlns="http://www.w3.org/2000/svg" viewBox="0 0 648.01 486.79" fill="#939399">
  <g id="Layer_4" data-name="Layer 4">
    <g>
      <path d="M366.41,327.5l53.99-8.04,59.07-46.59.49-18.29,41.72-32.02L456.52,26.84l-3.59-.1v30.03l-43.34-6.85,3.65-24.34-131.27-3.82-6.76,19.58h-27.53l8.48-20.34-22.78-.66v29h12.41l8.67,148.4-8.4,21.47,12.17,6.77,15.61,26.02,6.24,46.77-8.7,8.29,83.5,23.24M405.7,224.69l-135.69-19.67-3.8-99.39,148.93,8.49-9.44,110.57Z"/>
      <path d="M343.86,338.07l-160.93,66.1v82.62l144-52.36v-62.54l27.43-30.85-10.5-2.97ZM255.43,429.84l2.64-22.43,40.87-19.63,4.49,27.06-48,15Z"/>
      <path d="M0,369.9l1.88,79.87,178.05,34.7v-78.58L0,369.9ZM157.43,418.84c-6,8,1,26-19.54,37.65-20.53,11.65-41.46-23.65-22-17.83,19.47,5.81,27.54-12.82,26.82-17.1-.72-4.27-.79-13.19,6.37-15.72,5.65-2,14.35,5,8.35,13Z"/>
      <path d="M262.87,315.17l-4.38,4.17h-64.57l-7.95-15.1L6.94,366.19l175.24,35.05,157-64.49-76.31-21.58ZM245.09,338.77l8.65,2.49-.81,2.78-8.64-2.49.8-2.78ZM233.71,336.09l8.65,2.49-.81,2.78-8.64-2.49.8-2.78ZM154.22,360.2l-8.65-2.5.8-2.78,8.65,2.49-.8,2.79ZM154.62,363.86l-.81,2.78-8.64-2.49.8-2.78,8.65,2.49ZM143.78,348.39l.8-2.78,8.65,2.49-.8,2.78-8.65-2.49ZM148.18,341.68l.8-2.78,8.65,2.5-.81,2.78-8.64-2.5ZM155.96,348.29l8.65,2.49-.8,2.78-8.65-2.49.8-2.78ZM165.6,362.88l-8.65-2.5.8-2.78,8.65,2.5-.8,2.78ZM166,366.55l-.81,2.78-8.64-2.5.8-2.78,8.65,2.5ZM159.56,344.37l.8-2.78,8.65,2.49-.81,2.78-8.64-2.49ZM167.22,338.86l.8-2.78,8.65,2.49-.8,2.79-8.65-2.5ZM167.34,350.97l8.65,2.5-.8,2.78-8.65-2.5.8-2.78ZM176.98,365.56l-8.65-2.49.8-2.78,8.65,2.49-.8,2.78ZM177.38,369.23l-.81,2.78-8.64-2.49.8-2.79,8.65,2.5ZM170.94,347.05l.8-2.78,8.65,2.49-.81,2.78-8.64-2.49ZM178.6,341.55l.8-2.79,8.65,2.5-.8,2.78-8.65-2.49ZM178.72,353.66l8.65,2.49-.8,2.78-8.65-2.49.8-2.78ZM188.36,368.24l-8.65-2.49.8-2.78,8.65,2.49-.8,2.78ZM188.75,371.91l-.8,2.78-8.64-2.49.8-2.78,8.64,2.49ZM182.32,349.73l.8-2.78,8.65,2.49-.81,2.79-8.64-2.5ZM199.43,343.94l-.8,2.78-8.65-2.49.8-2.78,8.65,2.49ZM194.37,337.52l.8-2.78,8.65,2.5-.8,2.78-8.65-2.5ZM190.1,356.34l8.65,2.49-.8,2.78-8.65-2.49.8-2.78ZM193.7,352.42l.8-2.79,8.65,2.5-.81,2.78-8.64-2.49ZM201.36,346.91l.8-2.78,8.65,2.49-.8,2.78-8.65-2.49ZM205.75,340.21l.8-2.78,8.65,2.49-.8,2.78-8.65-2.49ZM205.88,352.32l8.65,2.49-.81,2.78-8.64-2.49.8-2.78ZM212.74,349.59l.8-2.78,8.65,2.5-.8,2.78-8.65-2.5ZM217.13,342.89l.8-2.78,8.65,2.49-.8,2.78-8.65-2.49ZM224.92,349.5l8.65,2.49-.8,2.78-8.65-2.49.8-2.78ZM228.51,345.57l.8-2.78,8.65,2.49-.8,2.79-8.65-2.5ZM222.33,333.4l8.65,2.5-.81,2.78-8.64-2.5.8-2.78ZM210.95,330.72l8.65,2.49-.81,2.78-8.64-2.49.8-2.78ZM199.57,328.04l8.65,2.49-.81,2.78-8.64-2.49.8-2.78ZM188.19,325.35l8.65,2.5-.81,2.78-8.64-2.49.8-2.79ZM192.44,334.55l-.8,2.78-8.65-2.49.8-2.78,8.65,2.49ZM176.81,322.67l8.65,2.49-.81,2.79-8.64-2.5.8-2.78ZM172.41,329.38l8.65,2.49-.8,2.78-8.65-2.49.8-2.78ZM161.03,326.69l8.65,2.5-.8,2.78-8.65-2.5.8-2.78ZM156.64,333.4l8.65,2.49-.8,2.78-8.65-2.49.8-2.78ZM145.26,330.72l8.65,2.49-.8,2.78-8.65-2.49.8-2.78ZM137.6,336.22l8.65,2.49-.81,2.78-8.64-2.49.8-2.78ZM142.84,357.51l-8.65-2.49.8-2.78,8.65,2.49-.8,2.78ZM143.24,361.18l-.81,2.78-8.64-2.49.8-2.78,8.65,2.49ZM133.2,342.92l8.65,2.5-.8,2.78-8.65-2.49.8-2.79ZM131.46,354.83l-8.65-2.49.8-2.79,8.65,2.5-.8,2.78ZM131.86,358.5l-.81,2.78-8.64-2.5.8-2.78,8.65,2.5ZM121.82,340.24l8.65,2.49-.8,2.79-8.65-2.5.8-2.78ZM112.23,346.87l8.65,2.5-.8,2.78-8.65-2.5.8-2.78ZM111.83,353.32l8.65,2.49-.81,2.78-8.64-2.49.8-2.78ZM100.45,350.64l8.65,2.49-.81,2.78-8.64-2.49.8-2.78ZM88.04,368.24l-8.64-2.5.8-2.78,8.65,2.5-.81,2.78ZM90.79,356.27l8.65,2.49-.8,2.78-8.65-2.49.8-2.78ZM99.42,370.92l-8.64-2.49.8-2.78,8.65,2.49-.81,2.78ZM102.17,358.95l8.65,2.5-.8,2.78-8.65-2.5.8-2.78ZM110.8,373.6l-8.64-2.49.8-2.78,8.65,2.49-.81,2.78ZM113.55,361.63l8.65,2.5-.8,2.78-8.65-2.49.8-2.79ZM122.18,376.29l-8.64-2.5.8-2.78,8.65,2.5-.81,2.78ZM124.93,364.32l8.65,2.49-.8,2.78-8.65-2.49.8-2.78ZM133.56,378.97l-8.64-2.49.8-2.78,8.65,2.49-.81,2.78ZM136.31,367l8.65,2.49-.8,2.79-8.65-2.5.8-2.78ZM144.94,381.65l-8.64-2.49.8-2.78,8.65,2.49-.81,2.78ZM147.69,369.68l8.65,2.5-.8,2.78-8.65-2.49.8-2.79ZM156.32,384.34l-8.64-2.5.8-2.78,8.65,2.49-.81,2.79ZM159.07,372.37l8.65,2.49-.8,2.78-8.65-2.49.8-2.78ZM167.7,387.02l-8.64-2.49.8-2.79,8.65,2.5-.81,2.78ZM170.45,375.05l8.65,2.49-.81,2.78-8.64-2.49.8-2.78ZM179.08,389.7l-8.64-2.49.8-2.78,8.65,2.49-.81,2.78ZM189.67,383.01l-8.64-2.5.8-2.78,8.65,2.5-.81,2.78ZM199.33,377.38l-8.64-2.5.8-2.78,8.64,2.49-.8,2.79ZM199.74,370.93l-8.65-2.5.8-2.78,8.65,2.5-.8,2.78ZM201.48,359.02l8.65,2.5-.8,2.78-8.65-2.5.8-2.78ZM211.12,373.61l-8.65-2.49.8-2.78,8.65,2.49-.8,2.78ZM220.71,366.98l-8.65-2.49.8-2.78,8.65,2.49-.8,2.78ZM225.1,360.27l-8.64-2.49.8-2.78,8.65,2.49-.81,2.78ZM236.48,362.96l-8.64-2.5.8-2.78,8.64,2.5-.8,2.78ZM244.15,357.45l-8.65-2.49.8-2.78,8.65,2.49-.8,2.78ZM248.54,350.75l-8.65-2.49.8-2.79,8.65,2.5-.8,2.78ZM259.92,353.43l-8.65-2.49.8-2.78,8.65,2.49-.8,2.78ZM264.31,346.73l-8.64-2.5.8-2.78,8.65,2.5-.81,2.78ZM267.05,346.92l.8-2.79,8.65,2.5-.81,2.78-8.64-2.49Z"/>
      <polyline points="362.07 339.9 368.94 332.18 422.46 324.22 482.36 276.96 489.26 278.24 507.77 281.67 529.68 301.67 536.18 328.63 451.53 379.44 409.74 432.95 370.88 439.45 331.93 433.13 331.93 373.79"/>
      <polygon points="648.01 188.3 565.35 320.16 556.16 322.46 547.85 324.53 547.84 324.53 540.77 326.3 540.68 325.93 535.56 304.73 534.57 300.63 534.18 299.01 510.09 277.01 505.39 276.14 500.4 275.22 492.35 273.73 487.58 272.84 484.49 272.27 484.49 272.1 484.58 268.84 484.9 257.1 523.35 227.59 549.79 207.3 526.87 124.57 590.01 89.7 648.01 188.3"/>
      <polygon points="282.68 4.34 276.73 21.6 271.65 36.34 255.18 36.34 261.51 21.16 268.52 4.34 282.68 4.34"/>
      <polygon points="447.93 0 447.93 50.91 415.27 45.76 418.27 25.73 421.8 2.21 419.33 1.84 447.93 0"/>
      <polygon points="274.78 296.91 265.77 305.5 257.28 313.59 256.49 314.34 196.94 314.34 190.81 302.69 177.99 278.35 186.39 262.68 187.02 263.18 187.19 261.18 194.82 246.95 190.12 236.31 226.02 214.22 233.41 218.13 241.76 222.54 242.05 222.7 254.63 229.7 269.02 253.68 274.78 296.91"/>
      <polygon points="249.4 196.94 242.29 215.12 233.41 212.47 225.84 208.46 188.09 231.69 185.94 233.02 184.55 233.87 184.39 235.7 182.84 253.5 163.13 237.89 151.03 192.88 193.28 54.34 241.07 54.34 249.4 196.94"/>
    </g>
  </g>
</svg>