<?xml version="1.0" encoding="UTF-8"?>
<svg id="Layer_2" data-name="Layer 2" xmlns="http://www.w3.org/2000/svg" viewBox="0 0 490 507" fill="#1E1919">
  <g id="Layer_9" data-name="Layer 9">
    <g>
      <polygon points="205.01 115.39 220.58 43.2 207.45 0 228.74 0 240.62 120.14 205.01 115.39"/>
      <polygon points="285 265.5 279.46 268.7 276.23 267.1 246.93 284.01 247.61 287.08 243.42 289.5 209.43 251.42 204.61 120.37 204.53 118.24 232.59 121.59 233.08 121.66 233.43 124.22 237 150.65 285 265.5"/>
      <polygon points="205.84 289.74 206.68 295.03 129.77 247.42 129.62 247.55 58.89 176.92 35.94 143.04 36.59 142.69 36.88 142.53 93.72 88 107.34 0 202.22 0 215.42 43.42 202.57 102.98 202.57 103 201.02 110.2 199.56 116.97 199.49 117.28 199.5 117.63 199.5 117.66 204.21 245.58 205.83 289.59 205.84 289.74"/>
      <polygon points="240.49 507 1.5 507 1.5 223.53 82.65 287.36 79.49 290.04 113.97 307.28 131.95 359.21 183.76 388.67 184.11 388.87 222.94 396.96 240.49 507"/>
      <polygon points="125.79 250.79 86.54 284.06 1.5 217.18 0 216 0 98.92 28.7 141.29 30.11 143.37 31.52 145.44 54.88 179.93 55.02 180.13 125.79 250.79"/>
      <polygon points="221.57 388.38 222.1 391.68 185.89 384.13 136.05 355.79 118.03 303.72 98.05 293.73 95.63 292.52 89.11 289.26 88.61 288.87 90.56 287.22 129.34 254.33 130.23 253.58 135.19 256.65 138.49 258.69 207.72 301.55 210.53 303.29 212.37 304.43 213.43 305.63 226.76 320.69 232.19 326.83 217.25 329.55 215.41 329.88 214.71 329.51 211.95 328.03 204.66 324.15 181.85 311.99 187.64 353.66 221.57 388.38"/>
      <polygon points="326.18 304.5 315.82 304.5 265.77 310.39 257.67 304.79 253.74 287.01 276.45 273.9 288.83 280.04 323.07 291.81 326.18 304.5"/>
      <path d="M374,297.65l-41.73,6.53-2.97.47-33.2,5.19h-.03l-33.94,5.32-29.51,4.62-2.93.45-2.93.46,5.43,6.14-14.94,2.72-1.84.33-.7-.37-2.76-1.48-7.29-3.88-4.11.64-4.1.65-7.52,1.17-2.47.39v12.66l2.08,2.34h0s2.99,3.37,2.99,3.37l28.26,31.83h0s3.08,3.47,3.08,3.47h0s3.09,3.48,3.09,3.48h0s34.04,38.35,34.04,38.35l230-45.7v-11.3l-116-67.85ZM273.49,361.95l28.81-4.85,16.77,12.55-29.07,5.15-16.51-12.85ZM280.91,376.41l-29.07,5.16-16.16-13.25,28.81-4.85,16.42,12.94ZM306.03,351.69l-16.85-12.45,28.46-4.46,17.12,12.15-28.73,4.76ZM340.11,350.73l17.12,12.16-29.08,5.15-16.85-12.45,28.81-4.86ZM324.31,373.57l16.77,12.55-29.42,5.55-16.51-12.85,29.16-5.25ZM333.42,371.93l29.16-5.24,17.11,12.16-29.42,5.54-16.85-12.46ZM371.69,365.05l29.15-5.25,17.47,11.77-29.42,5.54-17.2-12.06ZM366.31,361.28l-17.2-12.06,28.81-4.86,17.47,11.77-29.08,5.15ZM343.74,345.45l-17.2-12.07,28.46-4.45,17.46,11.76-28.72,4.76ZM321.16,329.61l-17.2-12.06,28.11-4.06,17.47,11.76-28.38,4.36ZM295.17,318.82l17.12,12.16-28.38,4.36-16.85-12.45,28.11-4.07ZM297.06,353.18l-28.73,4.76-16.5-12.85,28.46-4.46,16.77,12.55ZM259.35,359.43l-28.72,4.75-9.04-7.4-7.12-5.84,6.04-.95,22.42-3.51,16.42,12.95ZM286.04,380.46l16.43,12.94-29.43,5.55-16.15-13.24,29.15-5.25ZM456.92,364.29l-29.42,5.54-17.54-11.67,29.15-5.24,17.81,11.37ZM433.54,349.36l-29.07,5.16-17.55-11.67,28.81-4.85,17.81,11.36ZM410.17,334.44l-28.73,4.76-17.55-11.67,28.46-4.46,17.82,11.37ZM368.97,308.15l17.82,11.37-28.38,4.37-17.55-11.67,28.11-4.07ZM238.96,326.95l19.32-2.79,16.77,12.55-28.38,4.36-12.27-9.55-4.24-3.3,8.8-1.27ZM221.38,329.49l4.53,3.57,11.89,9.38-18.05,2.77-10.33,1.59-16.16-13.24,28.12-4.07Z"/>
    </g>
  </g>
</svg>