<svg width="66" height="81" viewBox="0 0 66 81" fill="none" xmlns="http://www.w3.org/2000/svg">
<g clip-path="url(#clip0_139_2206)">
<path d="M64.1304 17.3491C64.4198 24.8762 57.084 20.157 51.4439 21.0619C28.4892 24.7411 36.3545 69.3504 64.893 55.1534C66.2056 62.2472 59.4788 63.8448 53.9118 64.1118C42.0909 64.6943 38.157 58.1006 32.9498 48.9184C28.4787 61.7355 12.1743 74.5162 1.40511 60.7338C7.82314 54.9116 10.948 65.7352 20.2114 58.583C36.0628 46.3618 24.7014 17.7145 8.25399 25.1149C3.54968 27.222 5.71414 31.3576 0.781037 30.6488C-1.22175 20.886 10.1967 17.4051 17.8304 18.9882C25.9648 20.6644 27.7631 27.112 33.4457 31.7269C36.2708 18.3066 52.0571 9.68126 64.1311 17.3835L64.1304 17.3491Z" fill="#1E1919"/>
<path d="M31.03 79.8976C25.1391 70.0756 24.4215 67.7511 33.1589 59.2507C41.5635 64.9459 41.588 77.2424 31.03 79.8976Z" fill="#1E1919"/>
<path d="M29.8506 21.446C30.2649 17.2584 26.0123 14.472 26.1385 10.4966C26.1788 9.08548 29.132 -0.53652 31.9789 0.764744C39.6514 4.27328 40.4728 20.2686 29.8506 21.446Z" fill="#1E1919"/>
</g>
<defs>
<clipPath id="clip0_139_2206">
<rect width="63.9314" height="79.2179" fill="white" transform="translate(0 1.28955) rotate(-1.15561)"/>
</clipPath>
</defs>
</svg>
